<svg width="30" height="30" viewBox="0 0 30 30" fill="none" xmlns="http://www.w3.org/2000/svg">
<path d="M4.71657 21.775L3.21157 12.8C2.98407 11.4425 2.87032 10.765 3.23532 10.32C3.59907 9.875 4.26907 9.875 5.60782 9.875H24.1428C25.4816 9.875 26.1516 9.875 26.5153 10.32C26.8803 10.765 26.7653 11.4425 26.5391 12.8L25.0341 21.775C24.5353 24.75 24.2866 26.2363 23.2678 27.1188C22.2503 28 20.7828 28 17.8478 28H11.9028C8.96782 28 7.50032 28 6.48282 27.1175C5.46407 26.2363 5.21532 24.7487 4.71657 21.7737M21.7503 9.875C21.7503 8.05164 21.026 6.30295 19.7367 5.01364C18.4474 3.72433 16.6987 3 14.8753 3C13.052 3 11.3033 3.72433 10.014 5.01364C8.72465 6.30295 8.00032 8.05164 8.00032 9.875" stroke="#005BFF" stroke-width="2" stroke-linecap="round" stroke-linejoin="round"/>
</svg>
